<svg width="35" height="23" viewBox="0 0 35 23" fill="none" xmlns="http://www.w3.org/2000/svg">
<g id="Group 2">
<path id="Vector" fill-rule="evenodd" clip-rule="evenodd" d="M29.1445 2.35379C28.1398 1.34902 26.777 0.784546 25.3561 0.784546H6.06819C4.64723 0.784546 3.28447 1.34902 2.27969 2.35379C1.27492 3.35856 0.710449 4.72132 0.710449 6.14228V16.8578C0.710449 18.2787 1.27492 19.6415 2.27969 20.6463C3.28447 21.651 4.64723 22.2155 6.06819 22.2155H25.3561C26.777 22.2155 28.1398 21.651 29.1445 20.6463C30.1493 19.6415 30.7138 18.2787 30.7138 16.8578V15.0726L33.2148 15.0768C33.6883 15.0768 34.1423 14.8888 34.4771 14.554C34.8119 14.2192 35 13.7651 35 13.2917V9.71911C35 9.24565 34.8119 8.79157 34.4771 8.45678C34.1423 8.12199 33.6883 7.93391 33.2148 7.93391L30.7138 7.92748V6.14228C30.7138 4.72132 30.1493 3.35856 29.1445 2.35379ZM6.06819 2.81191H25.8918L26.1661 2.82477C26.8259 2.89268 27.4369 3.20289 27.8811 3.69537C28.3253 4.18785 28.571 4.82759 28.5707 5.49078V17.2671L28.5557 17.5414C28.4878 18.2008 28.1779 18.8115 27.6859 19.2557C27.1939 19.6998 26.5547 19.9457 25.8918 19.946H5.53242L5.2581 19.9331C3.90795 19.7959 2.85355 18.6537 2.85355 17.2671V5.49078L2.87069 5.23361C3.05714 3.87489 4.67518 2.81191 6.06819 2.81191Z" fill="#E1E1E1"/>
<path id="Vector_2" d="M6.78613 4.96144H24.636C25.5511 4.96144 26.3033 5.64294 26.4147 6.5259L26.4276 6.75092V16.0241C26.4279 16.46 26.2692 16.881 25.9811 17.2081C25.6931 17.5352 25.2955 17.7459 24.8631 17.8007L24.6381 17.8136H6.78613C6.3499 17.8144 5.92838 17.6559 5.60082 17.3678C5.27326 17.0797 5.06221 16.6819 5.00736 16.2491L4.99664 16.022V6.75092C4.99664 5.83796 5.68029 5.08574 6.5611 4.9743L6.78613 4.96144Z" fill="white"/>
</g>
</svg>
