<svg width="143" height="161" viewBox="0 0 143 161" fill="none" xmlns="http://www.w3.org/2000/svg">
<path d="M121.345 39.8931C118.994 37.5423 115.184 37.5423 112.832 39.8931C110.481 42.2439 110.481 46.0546 112.832 48.4054C123.878 59.4516 129.961 74.1383 129.961 89.76C129.961 105.381 123.878 120.067 112.832 131.112C101.433 142.512 86.4612 148.211 71.4856 148.21C56.5099 148.209 41.5311 142.508 30.1302 131.107C7.33248 108.31 7.33489 71.2136 30.1342 48.4143C32.485 46.0635 32.485 42.2519 30.1342 39.9019C27.7834 37.5511 23.9727 37.5511 21.6211 39.9019C-5.87183 67.3948 -5.87423 112.129 21.6171 139.62C35.3671 153.37 53.4256 160.245 71.4864 160.244C89.5424 160.243 107.601 153.37 121.346 139.625C134.665 126.307 142 108.598 142 89.7608C142.001 70.9231 134.665 53.213 121.345 39.8931Z" fill="white" stroke="white" stroke-width="0.802596"/>
<path d="M71.4791 78.7395C74.8043 78.7395 77.4986 76.0444 77.4986 72.72V6.77556C77.4986 3.4512 74.8043 0.756088 71.4791 0.756088C68.154 0.756088 65.4597 3.4512 65.4597 6.77556V72.72C65.4597 76.0452 68.154 78.7395 71.4791 78.7395Z" fill="white" stroke="white" stroke-width="0.802596"/>
</svg>
