<svg width="27" height="21" viewBox="0 0 27 21" fill="none" xmlns="http://www.w3.org/2000/svg">
<g id="Group 1">
<path id="Vector" d="M13.1472 3.194C17.4541 3.194 21.4724 4.84151 24.463 7.8321L26.1848 6.11032C22.7351 2.65945 18.1043 0.758667 13.1472 0.758667C8.19006 0.759885 3.55927 2.65945 0.109619 6.11032L1.8314 7.8321C4.82199 4.84151 8.8403 3.194 13.1472 3.194ZM20.0526 13.3092C16.3095 9.56606 9.98491 9.56606 6.2418 13.3092L7.96358 15.0309C10.7727 12.2218 15.5216 12.2218 18.3308 15.0309L20.0526 13.3092Z" fill="#E1E1E1"/>
<path id="Vector_2" d="M23.4202 9.63909C17.853 4.06948 8.44169 4.06948 2.87451 9.63909L4.59629 11.3609C9.23196 6.72521 17.0628 6.72521 21.6984 11.3609L23.4202 9.63909Z" fill="#E1E1E1"/>
<path id="Vector_3" d="M13.1472 20.2413C14.4922 20.2413 15.5826 19.151 15.5826 17.806C15.5826 16.461 14.4922 15.3707 13.1472 15.3707C11.8023 15.3707 10.7119 16.461 10.7119 17.806C10.7119 19.151 11.8023 20.2413 13.1472 20.2413Z" fill="#E1E1E1"/>
</g>
</svg>
